<svg xmlns="http://www.w3.org/2000/svg" version="1.1" xmlns:xlink="http://www.w3.org/1999/xlink" xmlns:svgjs="http://svgjs.com/svgjs" width="1000" height="1000" overflow="visible"><g class="signage-logo" opacity="1"><defs id="SvgjsDefs1002"></defs><g id="SvgjsG1008" transform="scale(1.0581781402475134)" opacity="1"><g id="SvgjsG1009" class="asN513ASh" transform="translate(116.52550362889151, -36.23615192808556) scale(2.7572822988986103)" light-content="false" non-strokable="false" fill="#1f2124"><path d="M84.132 38.385H40.6a4.675 4.675 0 0 0-4.677 4.676v25.638a4.676 4.676 0 0 0 4.677 4.674h43.533a4.672 4.672 0 0 0 4.674-4.674V43.061a4.672 4.672 0 0 0-4.674-4.676zm-37.19 29.808c0 .79-.643 1.433-1.43 1.433h-.74a1.431 1.431 0 0 1-1.426-1.433V44.338c0-.79.64-1.433 1.427-1.433h.738c.788 0 1.43.642 1.43 1.433v23.855zm17.292-1.551c-5.86 0-10.615-4.755-10.615-10.62 0-5.866 4.754-10.62 10.615-10.62 5.866 0 10.622 4.754 10.622 10.62 0 5.865-4.756 10.62-10.622 10.62zm17.16-18.164a2.93 2.93 0 1 1 .003-5.86 2.93 2.93 0 0 1-.002 5.86zM65.696 35.23v.738c0 .791.641 1.433 1.429 1.433H81.67c.792 0 1.434-.642 1.434-1.433v-.737c0-.789-.642-1.43-1.434-1.43H67.125a1.43 1.43 0 0 0-1.429 1.43z"></path><path d="M68.037 79.278a4.791 4.791 0 0 1-3.408 1.409H22.175a4.779 4.779 0 0 1-3.403-1.409 4.788 4.788 0 0 1-1.413-3.405V35.752h7.382c5.16 0 9.34-4.184 9.34-9.343V19.31H64.63a4.79 4.79 0 0 1 3.408 1.409 4.76 4.76 0 0 1 1.41 3.406v5.047h6.172v-5.047a10.97 10.97 0 0 0-3.22-7.768 10.945 10.945 0 0 0-7.77-3.215H26.195L11.194 28.148v47.725a10.958 10.958 0 0 0 3.212 7.765 10.968 10.968 0 0 0 7.77 3.216h42.453a10.949 10.949 0 0 0 7.771-3.216 10.945 10.945 0 0 0 3.005-5.64h-6.453c-.233.473-.54.905-.915 1.28z"></path><path d="M64.234 48.572a7.452 7.452 0 1 0 .005 14.904 7.452 7.452 0 0 0-.005-14.904z"></path></g><g id="SvgjsG1010" class="text" transform="translate(257.6300048828125, 264.24207666725124) scale(1)" light-content="false" fill="#080808"><path d="M-257.63 1.57C-257.63 1.96 -257.39 2.16 -256.91 2.16C-256.43 2.16 -256.06 1.81 -255.8 1.11C-254.75 -1.64 -252.29 -5.8 -248.4 -11.39C-247.53 -11.3 -246.63 -11.26 -245.72 -11.26C-242.1 -11.26 -237.72 -12.05 -232.59 -13.62C-227.46 -15.19 -223.07 -17.02 -219.4 -19.12C-217.05 -20.51 -215.04 -22.15 -213.38 -24.03C-210.5 -27.3 -209.06 -30.57 -209.06 -33.84C-209.06 -36.25 -209.8 -38.27 -211.28 -39.93C-212.46 -41.29 -214.07 -42.25 -216.1 -42.81C-218.13 -43.38 -219.89 -43.66 -221.4 -43.66C-222.9 -43.66 -224.16 -43.62 -225.16 -43.53C-231.01 -42.97 -236.89 -41.7 -242.81 -39.74C-248.72 -37.77 -252.48 -35.63 -254.1 -33.32C-254.32 -33.1 -254.42 -32.81 -254.42 -32.44C-254.42 -32.07 -254.29 -31.48 -254.03 -30.67C-253.77 -29.86 -253.18 -29.2 -252.26 -28.67C-252.05 -28.5 -251.87 -28.43 -251.74 -28.48C-251.61 -28.52 -251.65 -28.73 -251.87 -29.1C-252.09 -29.47 -251.83 -29.94 -251.09 -30.51C-248.95 -32.3 -244.88 -34.15 -238.88 -36.07C-232.88 -37.99 -227.52 -38.95 -222.81 -38.95C-221.45 -38.95 -219.87 -38.72 -218.06 -38.26C-216.25 -37.81 -214.83 -36.94 -213.8 -35.68C-212.78 -34.41 -212.27 -32.97 -212.27 -31.36C-212.27 -29.74 -212.92 -27.99 -214.23 -26.09C-215.54 -24.19 -217.56 -22.31 -220.29 -20.46C-223.01 -18.6 -227.05 -16.79 -232.4 -15.02C-237.74 -13.26 -242.36 -12.37 -246.24 -12.37C-246.72 -12.37 -247.18 -12.39 -247.62 -12.44C-243.12 -18.94 -238.12 -25.6 -232.63 -32.4C-232.63 -32.71 -232.72 -33.02 -232.92 -33.32C-233.12 -33.63 -233.35 -33.78 -233.61 -33.78C-234.17 -33.78 -236.18 -31.54 -239.63 -27.07C-243.08 -22.6 -246.5 -17.83 -249.91 -12.77C-251.61 -13.03 -253.03 -13.61 -254.16 -14.5C-255.3 -15.39 -255.87 -16.54 -255.87 -17.94C-255.87 -18.33 -255.73 -18.7 -255.47 -19.05C-255.21 -19.4 -255.08 -19.66 -255.08 -19.84C-255.08 -20.18 -255.37 -20.09 -255.96 -19.54C-256.55 -19 -256.85 -18.16 -256.85 -17.02C-256.85 -15.89 -256.19 -14.79 -254.88 -13.75C-253.75 -12.87 -252.31 -12.22 -250.56 -11.78C-255.28 -4.5 -257.63 -0.04 -257.63 1.57Z M-146.28 -42.94L-146.8 -42.88C-147.28 -42.88 -149.45 -40 -153.32 -34.24C-157.18 -28.48 -161.48 -21.6 -166.21 -13.62C-170.95 -5.63 -173.32 -0.74 -173.32 1.05C-173.32 1.4 -173.29 1.64 -173.25 1.77C-173.03 2.16 -172.75 1.99 -172.4 1.24C-170.35 -3.6 -166.65 -10.37 -161.3 -19.05C-155.96 -27.73 -150.97 -35.11 -146.34 -41.18C-145.86 -41.83 -145.62 -42.31 -145.62 -42.62C-145.62 -42.84 -145.84 -42.94 -146.28 -42.94ZM-172.46 -36.86L-173.05 -36.79C-173.8 -36.79 -178.01 -30.81 -185.69 -18.85L-186.28 -18.85C-189.59 -18.85 -193.15 -18.53 -196.95 -17.87C-203.28 -16.74 -207.75 -14.86 -210.37 -12.24C-212.16 -10.45 -213.05 -8.62 -213.05 -6.74C-213.05 -4.82 -212.11 -3.14 -210.24 -1.7L-209.65 -1.51C-209.3 -1.51 -209.25 -1.59 -209.52 -1.77C-210.39 -2.47 -210.83 -3.21 -210.83 -3.99C-210.83 -4.78 -210.46 -5.63 -209.71 -6.55C-207.27 -9.38 -202.21 -11.48 -194.53 -12.83C-193.35 -13.05 -191.49 -13.33 -188.96 -13.68C-196.95 -0.59 -200.94 7.05 -200.94 9.23C-200.94 9.67 -200.84 9.89 -200.65 9.89C-200.45 9.89 -200.24 9.64 -200.02 9.16C-197.89 4.1 -193.59 -3.56 -187.13 -13.81C-184.51 -14.07 -182.26 -14.21 -180.39 -14.21C-178.51 -14.21 -176.92 -14.14 -175.61 -14.01C-171.24 -13.62 -168.84 -12.87 -168.41 -11.78C-168.32 -11.57 -168.23 -11.46 -168.14 -11.46C-168.06 -11.46 -168.01 -11.54 -168.01 -11.72C-168.01 -14.55 -171.29 -16.65 -177.83 -18C-179.84 -18.4 -181.87 -18.66 -183.92 -18.79C-179.91 -24.94 -176.13 -30.38 -172.6 -35.09C-172.12 -35.74 -171.88 -36.22 -171.88 -36.53C-171.88 -36.75 -172.07 -36.86 -172.46 -36.86Z M-104.81 -22.09C-103.04 -25.83 -102.16 -29.69 -102.16 -33.68C-102.16 -37.67 -103.03 -40.37 -104.77 -41.77C-105.82 -42.64 -106.87 -43.08 -107.92 -43.08C-108.96 -43.08 -109.51 -42.86 -109.55 -42.42C-109.6 -42.2 -109.4 -42.16 -108.96 -42.29C-108.53 -42.42 -108.03 -42.34 -107.46 -42.06C-106.89 -41.78 -106.29 -40.95 -105.66 -39.57C-105.03 -38.2 -104.71 -36.07 -104.71 -33.19C-104.71 -25.47 -107.22 -18.48 -112.24 -12.24C-116.08 -7.53 -121.05 -4.08 -127.16 -1.9C-130.57 -0.68 -133.47 -0.07 -135.87 -0.07C-136.57 -0.07 -137.24 -0.13 -137.9 -0.26C-142.44 -1 -144.71 -3.4 -144.71 -7.46C-144.71 -11.17 -143.03 -15.34 -139.67 -19.97C-137.22 -23.33 -133.57 -26.58 -128.7 -29.72C-123.84 -32.86 -119.77 -34.43 -116.49 -34.43C-114.22 -34.43 -113.09 -33.47 -113.09 -31.55C-113.09 -30.99 -113.15 -30.45 -113.29 -29.95C-113.42 -29.45 -113.44 -29.11 -113.35 -28.93C-113.18 -28.59 -113.02 -28.67 -112.89 -29.2C-112.41 -30.64 -112.17 -32.03 -112.17 -33.39C-112.17 -35.7 -112.83 -37.45 -114.14 -38.62C-115.31 -39.71 -116.71 -40.26 -118.33 -40.26C-119.94 -40.26 -121.64 -40 -123.43 -39.47C-126.18 -38.56 -129.27 -36.63 -132.7 -33.68C-136.12 -30.74 -139.01 -27.39 -141.37 -23.63C-144.55 -18.48 -146.15 -13.73 -146.15 -9.36C-146.15 -6.22 -145.17 -3.49 -143.2 -1.18C-140.89 1.57 -137.79 2.95 -133.91 2.95C-131.03 2.95 -128.23 2.23 -125.53 0.79C-120.38 -2.01 -115.88 -5.83 -112.04 -10.67C-108.99 -14.55 -106.57 -18.36 -104.81 -22.09Z M-46.32 -33.19C-46.32 -32.54 -46.53 -31.86 -46.97 -31.16C-47.41 -30.46 -47.67 -29.92 -47.76 -29.52C-47.8 -29.18 -47.49 -29.07 -46.84 -29.2C-46.18 -29.33 -45.57 -29.79 -45.01 -30.57C-44.53 -31.4 -44.29 -32.21 -44.29 -32.99C-44.29 -33.78 -44.53 -34.56 -45.01 -35.35C-45.88 -36.88 -48.02 -38.32 -51.42 -39.67C-56.62 -41.68 -63.16 -42.68 -71.06 -42.68C-73.81 -42.68 -77 -42.46 -80.62 -42.03C-86.82 -41.24 -92.25 -39.93 -96.92 -38.1C-98.45 -37.49 -99.76 -36.7 -100.85 -35.74C-101.94 -34.78 -102.69 -33.86 -103.11 -32.96C-103.52 -32.07 -103.73 -31.13 -103.73 -30.15C-103.73 -29.16 -103.36 -28.3 -102.61 -27.56C-102.4 -27.34 -102.13 -27.23 -101.83 -27.23C-101.52 -27.23 -101.48 -27.34 -101.7 -27.56C-103.57 -29.44 -102.53 -31.16 -98.56 -32.73C-93.58 -34.78 -85.72 -36.35 -74.99 -37.45C-70.67 -37.88 -66.71 -38.1 -63.11 -38.1C-59.51 -38.1 -56.31 -37.88 -53.52 -37.45C-48.72 -36.66 -46.32 -35.24 -46.32 -33.19ZM-84.81 -3.34C-83.46 -11.24 -78.13 -22.1 -68.84 -35.94C-68.79 -36.03 -68.77 -36.14 -68.77 -36.27C-68.77 -36.4 -68.84 -36.53 -68.97 -36.66C-69.1 -36.79 -69.3 -36.86 -69.59 -36.86C-69.87 -36.86 -70.28 -36.51 -70.8 -35.81C-77.39 -26.56 -81.67 -20.44 -83.63 -17.45C-85.59 -14.46 -87.08 -11.52 -88.08 -8.64C-89.09 -5.76 -89.59 -3.19 -89.59 -0.92C-89.59 3.23 -87.65 5.46 -83.76 5.76L-83.11 5.76C-81.97 5.76 -81.06 5.46 -80.36 4.84C-80.09 4.67 -79.96 4.47 -79.96 4.26C-79.96 4.04 -80.14 4.08 -80.49 4.39L-82.26 5.11C-82.52 5.11 -82.76 5.06 -82.98 4.98C-84.5 4.58 -85.27 3.16 -85.27 0.72C-85.27 -0.02 -85.11 -1.37 -84.81 -3.34Z M-17.48 -22.09C-15.71 -25.83 -14.83 -29.69 -14.83 -33.68C-14.83 -37.67 -15.7 -40.37 -17.45 -41.77C-18.49 -42.64 -19.54 -43.08 -20.59 -43.08C-21.64 -43.08 -22.18 -42.86 -22.22 -42.42C-22.27 -42.2 -22.07 -42.16 -21.64 -42.29C-21.2 -42.42 -20.7 -42.34 -20.13 -42.06C-19.56 -41.78 -18.96 -40.95 -18.33 -39.57C-17.7 -38.2 -17.38 -36.07 -17.38 -33.19C-17.38 -25.47 -19.89 -18.48 -24.91 -12.24C-28.75 -7.53 -33.72 -4.08 -39.83 -1.9C-43.24 -0.68 -46.14 -0.07 -48.54 -0.07C-49.24 -0.07 -49.92 -0.13 -50.57 -0.26C-55.11 -1 -57.38 -3.4 -57.38 -7.46C-57.38 -11.17 -55.7 -15.34 -52.34 -19.97C-49.89 -23.33 -46.24 -26.58 -41.37 -29.72C-36.51 -32.86 -32.44 -34.43 -29.16 -34.43C-26.89 -34.43 -25.76 -33.47 -25.76 -31.55C-25.76 -30.99 -25.83 -30.45 -25.96 -29.95C-26.09 -29.45 -26.11 -29.11 -26.02 -28.93C-25.85 -28.59 -25.69 -28.67 -25.56 -29.2C-25.08 -30.64 -24.84 -32.03 -24.84 -33.39C-24.84 -35.7 -25.5 -37.45 -26.81 -38.62C-27.99 -39.71 -29.38 -40.26 -31 -40.26C-32.61 -40.26 -34.31 -40 -36.1 -39.47C-38.85 -38.56 -41.94 -36.63 -45.37 -33.68C-48.79 -30.74 -51.68 -27.39 -54.04 -23.63C-57.23 -18.48 -58.82 -13.73 -58.82 -9.36C-58.82 -6.22 -57.84 -3.49 -55.87 -1.18C-53.56 1.57 -50.46 2.95 -46.58 2.95C-43.7 2.95 -40.9 2.23 -38.2 0.79C-33.05 -2.01 -28.55 -5.83 -24.71 -10.67C-21.66 -14.55 -19.25 -18.36 -17.48 -22.09Z M37.35 -33.98C37.35 -33.32 37.23 -32.72 36.99 -32.18C36.75 -31.63 36.67 -31.22 36.76 -30.93C36.85 -30.65 37.02 -30.77 37.28 -31.29C38.15 -33.08 38.59 -34.72 38.59 -36.2C38.59 -38.51 37.63 -40.3 35.71 -41.57C33.92 -42.75 31.77 -43.34 29.26 -43.34C26.75 -43.34 24.12 -43.05 21.37 -42.49C17.01 -41.44 12.12 -39.32 6.71 -36.14C-2.41 -30.81 -8.83 -24.66 -12.54 -17.68C-14.06 -14.88 -14.83 -12 -14.83 -9.03C-14.83 -5.54 -13.8 -2.77 -11.75 -0.72C-8.52 2.47 -4.22 4.06 1.15 4.06C8.83 4.06 16.97 1.68 25.56 -3.08C30.98 -6.09 35.27 -9.21 38.46 -12.44C35.58 -6.24 30.89 0.24 24.39 7C19.15 12.42 14.37 15.12 10.05 15.12C7.56 15.12 5.35 14.34 3.4 12.77C1.46 11.19 0.27 9.16 -0.16 6.68C-0.25 6.42 -0.39 6.27 -0.59 6.25C-0.79 6.23 -0.86 6.39 -0.82 6.74C-0.34 10.02 1.05 12.42 3.34 13.94C5.63 15.47 8.47 16.24 11.85 16.24C15.23 16.24 18.54 15.41 21.77 13.75C25 12.09 28 9.79 30.77 6.84C33.54 3.9 36.78 -0.74 40.49 -7.07C43.02 -11.48 44.29 -14.79 44.29 -17.02C44.29 -18.02 44 -18.86 43.44 -19.54C42.87 -20.22 41.96 -20.56 40.72 -20.56C39.47 -20.56 38.11 -20.03 36.63 -18.98C36.06 -18.55 35.84 -18.12 35.97 -17.71C36.1 -17.29 36.54 -17.39 37.28 -18C38.02 -18.61 38.72 -18.96 39.38 -19.05C40.16 -19.14 40.48 -18.78 40.33 -17.97C40.17 -17.16 39.97 -16.32 39.7 -15.45C36.43 -11.65 31.91 -8.3 26.15 -5.4C20.39 -2.5 14.57 -0.52 8.67 0.52C6.19 1 4.24 1.24 2.85 1.24C1.45 1.24 0.43 1.22 -0.23 1.18C-6.03 0.7 -9.77 -0.81 -11.42 -3.34C-12.38 -4.74 -12.86 -6.3 -12.86 -8.02C-12.86 -9.74 -12.14 -11.77 -10.7 -14.11C-9.26 -16.44 -7.21 -18.85 -4.55 -21.34C-0.23 -25.36 5.8 -28.98 13.55 -32.21C21.3 -35.44 27.42 -37.05 31.91 -37.05C35.54 -37.05 37.35 -36.03 37.35 -33.98Z M49.98 2.42C49.98 2.81 50.21 3.01 50.67 3.01C51.13 3.01 51.49 2.66 51.75 1.96C52.84 -0.79 55.7 -5.52 60.32 -12.24C61.5 -10.02 63.11 -7.86 65.14 -5.76C67.17 -3.67 69.62 -1.92 72.5 -0.52C75.38 0.87 78.15 1.57 80.81 1.57C85.44 1.57 87.93 0.11 88.28 -2.81C88.28 -2.9 88.23 -3.01 88.15 -3.14C87.93 -3.23 87.82 -3.16 87.82 -2.95C87.69 -2.16 87.21 -1.51 86.38 -0.98C85.55 -0.46 84.59 -0.2 83.5 -0.2C80.75 -0.2 77.27 -1.97 73.06 -5.53C68.85 -9.09 66.04 -12.61 64.65 -16.1C68.57 -16.1 72.87 -16.87 77.54 -18.4C81.56 -19.7 84.97 -21.18 87.79 -22.81C90.6 -24.45 92.9 -26.29 94.69 -28.35C96.48 -30.4 97.38 -32.62 97.38 -35.02C97.38 -37.47 96.57 -39.37 94.96 -40.72C93.91 -41.63 92.72 -42.22 91.39 -42.49C90.06 -42.75 88.38 -42.88 86.35 -42.88C84.32 -42.88 81.19 -42.58 76.95 -41.99C72.72 -41.41 68.1 -40.18 63.11 -38.33C58.11 -36.47 54.89 -34.5 53.45 -32.4C53.23 -32.23 53.12 -31.95 53.12 -31.55C53.12 -31.16 53.24 -30.57 53.48 -29.79C53.72 -29 54.3 -28.35 55.22 -27.82C55.48 -27.65 55.68 -27.58 55.81 -27.63C55.94 -27.67 55.91 -27.87 55.71 -28.21C55.51 -28.56 55.76 -29.04 56.46 -29.66C58.91 -31.75 63.24 -33.68 69.46 -35.45C75.68 -37.22 80.6 -38.1 84.22 -38.1C87.84 -38.1 90.5 -37.66 92.21 -36.79C93.91 -35.92 94.76 -34.85 94.76 -33.58C94.76 -30.66 92.18 -27.45 87.03 -23.96C84.55 -22.3 81.36 -20.83 77.48 -19.54C73.59 -18.25 69.99 -17.5 66.67 -17.28L64.32 -17.09L64.19 -17.54C67.85 -22.56 71.43 -27.23 74.92 -31.55C74.92 -31.86 74.83 -32.15 74.63 -32.44C74.43 -32.72 74.16 -32.86 73.81 -32.86C73.46 -32.86 72.28 -31.64 70.28 -29.2C68.27 -26.75 65.98 -23.76 63.4 -20.23L63.21 -20.23C62.64 -20.23 61.81 -19.79 60.72 -18.92C59.63 -18.05 59.08 -17.28 59.08 -16.63C59.08 -15.97 59.19 -15.25 59.41 -14.47C53.12 -5.3 49.98 0.33 49.98 2.42Z M159.96 5.83C158.48 4.3 157.73 2.29 157.73 -0.2C157.73 -2.68 158.08 -5.08 158.78 -7.4C160.62 -13.2 163.65 -19.64 167.88 -26.71C170.41 -30.9 173.03 -34.65 175.74 -37.97C175.96 -38.27 176.06 -38.62 176.06 -39.02C176.06 -39.41 176.04 -39.76 176 -40.06C175.82 -41.02 175.48 -41.11 174.95 -40.33C174.86 -40.15 173.87 -38.98 171.97 -36.82C170.07 -34.66 168.1 -32.34 166.05 -29.85C164 -27.36 161.88 -24.42 159.7 -21.01C157.52 -17.61 156 -14.7 155.15 -12.27C154.3 -9.85 153.87 -7.57 153.87 -5.43C153.87 -0.28 155.77 3.62 159.57 6.28C159.83 6.46 160 6.39 160.09 6.09C160.09 5.96 160.05 5.87 159.96 5.83ZM105.49 -17.09C99.56 -14.6 95.94 -11.57 94.63 -7.99C94.32 -7.11 94.17 -6.26 94.17 -5.43C94.17 -3.3 95.32 -1.34 97.61 0.43C99.9 2.19 104.01 3.08 109.95 3.08C113.26 3.08 116.78 2.42 120.49 1.11C127.29 -1.2 135.13 -6.63 143.99 -15.19C146.43 -14.97 148.59 -14.64 150.47 -14.21C152.56 -13.73 153.79 -13.07 154.13 -12.24C154.18 -12.07 154.25 -11.94 154.36 -11.85C154.47 -11.76 154.56 -11.76 154.63 -11.85C154.69 -11.94 154.7 -12.11 154.66 -12.37C154.27 -14.99 151.89 -17.11 147.52 -18.72C148.35 -19.55 149.93 -21.18 152.27 -23.6C154.6 -26.02 156.84 -28.31 158.98 -30.47C161.12 -32.63 163.8 -35.02 167.03 -37.64C171.53 -41.18 175.8 -42.94 179.86 -42.94C182.26 -42.94 183.88 -42.55 184.71 -41.77C184.88 -41.55 185.01 -41.49 185.1 -41.6C185.19 -41.71 185.23 -41.79 185.23 -41.83C185.23 -41.87 185.1 -42.04 184.84 -42.32C184.58 -42.61 183.79 -43 182.48 -43.5C181.17 -44 179.73 -44.25 178.16 -44.25C174.67 -44.25 170.83 -42.62 166.64 -39.34C164.15 -37.42 160.94 -34.43 157.01 -30.38C155.66 -28.98 153.83 -27.07 151.52 -24.65C149.2 -22.22 147.46 -20.4 146.28 -19.18C141.3 -20.75 136.33 -21.54 131.35 -21.54C121.27 -21.54 112.65 -20.05 105.49 -17.09ZM138.29 -15.45C139.65 -15.45 141 -15.41 142.35 -15.32C133.8 -6.9 126.42 -1.72 120.22 0.2C116.08 1.37 112.23 1.96 108.67 1.96C105.11 1.96 102.61 1.42 101.17 0.33C99.95 -0.59 99.34 -1.61 99.34 -2.75C99.34 -3.71 99.8 -4.74 100.72 -5.83C103.68 -9.27 110.1 -11.87 119.96 -13.62C126.38 -14.84 132.49 -15.45 138.29 -15.45Z M193.15 1.31C193.76 1.31 195.33 -0.28 197.86 -3.47C198.04 -3.47 198.19 -3.54 198.32 -3.67C203.43 -9.38 208.75 -14.9 214.3 -20.23C219.84 -25.55 224.49 -29.42 228.24 -31.82C230.42 -33.26 232.15 -33.98 233.41 -33.98C234.68 -33.98 235.46 -33.34 235.77 -32.08C235.81 -31.68 235.83 -31.15 235.83 -30.47C235.83 -29.8 235.7 -28.85 235.44 -27.63C234.57 -24.09 230.51 -16.04 223.26 -3.47C223.18 -3.3 223.13 -3.12 223.13 -2.95C223.13 -2.16 224.01 -1.77 225.75 -1.77C226.28 -1.77 226.73 -2.05 227.13 -2.62C229.83 -6.59 232.1 -10.06 233.93 -13.03C240.61 -20.36 246.66 -26.08 252.07 -30.18C254.6 -32.1 256.8 -33.06 258.68 -33.06C260.08 -33.06 260.77 -32.38 260.77 -31.03C260.77 -29.24 259.29 -26.27 256.32 -22.13C246.46 -8.38 240.94 0.22 239.76 3.67C239.28 5.15 239.04 6.83 239.04 8.71C239.04 10.02 239.42 11.21 240.19 12.27C240.95 13.34 241.9 14.11 243.03 14.57C244.17 15.02 245.09 15.3 245.78 15.38C246.48 15.47 247.09 15.51 247.62 15.51C248.14 15.51 248.6 15.33 248.99 14.96C249.38 14.59 249.47 14.26 249.25 13.98C249.03 13.69 248.77 13.66 248.47 13.88C247.68 14.45 246.94 14.66 246.24 14.53C245.11 14.36 244.54 13.29 244.54 11.33C244.54 5.08 250.98 -7.48 263.85 -26.38C266.03 -29.61 267.12 -32.09 267.12 -33.81C267.12 -35.54 266.1 -36.4 264.05 -36.4C260.47 -36.4 256.15 -34.52 251.09 -30.77C246.9 -27.67 242.14 -23.35 236.82 -17.81C240.35 -23.79 242.18 -27.87 242.31 -30.05C242.4 -30.88 242.44 -31.62 242.44 -32.27C242.44 -32.93 242.23 -33.69 241.79 -34.56C241 -36.14 239.7 -36.92 237.86 -36.92C231.45 -36.92 220.36 -28.63 204.61 -12.05C206 -13.79 207.96 -16.14 210.47 -19.08C212.98 -22.03 214.45 -23.79 214.88 -24.35C217.02 -26.93 218.57 -29.55 219.53 -32.21C220.06 -33.52 220.32 -34.84 220.32 -36.17C220.32 -37.5 219.77 -38.84 218.68 -40.19C217.02 -42.33 213.31 -43.4 207.55 -43.4C202.1 -43.4 196.23 -42.6 189.94 -40.98C184.09 -39.5 179.08 -37.55 174.89 -35.15C173.05 -34.15 171.73 -32.96 170.93 -31.59C170.12 -30.21 169.71 -28.83 169.71 -27.43C169.71 -26.03 170.37 -24.9 171.68 -24.03C171.9 -23.89 172.17 -23.84 172.5 -23.86C172.82 -23.88 172.84 -23.98 172.53 -24.16C171.53 -24.85 171.02 -25.57 171.02 -26.32C171.02 -28.37 174.54 -30.59 181.56 -32.99C191.6 -36.4 199.76 -38.1 206.05 -38.1C211.98 -38.1 214.95 -36.31 214.95 -32.73C214.95 -31.16 214.35 -29.18 213.15 -26.77C211.95 -24.37 209.56 -20.86 205.98 -16.24C205.02 -15.01 203.3 -12.9 200.81 -9.89C198.32 -6.87 196.9 -5.15 196.55 -4.71C194.11 -1.66 192.89 0.17 192.89 0.79C192.89 1.13 192.98 1.31 193.15 1.31Z"></path></g></g></g></svg>